<?xml version="1.0" encoding="UTF-8"?>
<svg xmlns="http://www.w3.org/2000/svg" xmlns:xlink="http://www.w3.org/1999/xlink" width="125pt" height="125pt" viewBox="0 0 125 125" version="1.1">
<defs>
<linearGradient id="linear0" gradientUnits="userSpaceOnUse" x1="161.7887" y1="29.7514" x2="291.5599" y2="217.3935" gradientTransform="matrix(0.25,0,0,0.25,0,0)">
<stop offset="0" style="stop-color:rgb(54.117647%,69.411765%,96.470588%);stop-opacity:1;"/>
<stop offset="1" style="stop-color:rgb(38.431373%,14.117647%,86.666667%);stop-opacity:1;"/>
</linearGradient>
</defs>
<g id="surface1">
<path style=" stroke:none;fill-rule:nonzero;fill:url(#linear0);" d="M 115.898438 25.375 C 114.925781 21.625 110.898438 19.199219 103.949219 18.101562 L 103.949219 22.175781 C 108.574219 23 111.523438 24.5 112 26.375 C 113.050781 30.425781 103.425781 38.574219 85.148438 45.773438 C 84.550781 44.324219 84.398438 42.074219 84.300781 40.601562 C 84.273438 40.273438 84.25 39.949219 84.226562 39.648438 C 84.050781 37.5 84 35.226562 83.949219 32.851562 C 83.851562 28.523438 83.75 23.949219 82.851562 19.574219 L 91.898438 23.324219 L 91.898438 36.675781 C 93.300781 35.976562 94.648438 35.273438 95.925781 34.574219 L 95.925781 22.675781 C 95.925781 21.425781 95.175781 20.300781 94.023438 19.851562 L 81.375 14.625 C 80.175781 11.675781 78.425781 8.925781 75.800781 6.574219 C 71.574219 2.773438 65.800781 1.023438 59.898438 1.726562 C 54.199219 2.398438 49.148438 5.375 46.101562 9.875 C 45.25 11.125 44.601562 12.5 44.101562 13.925781 L 30.925781 19.875 C 29.800781 20.351562 29.074219 21.449219 29.074219 22.699219 L 29.074219 48.976562 C 29.074219 49.226562 29.050781 50.148438 29.175781 51.523438 C 29.476562 51.523438 29.75 51.550781 30.050781 51.550781 C 31.074219 51.550781 32.125 51.550781 33.199219 51.5 C 33.050781 50.125 33.074219 49.25 33.101562 49.101562 C 33.101562 49.074219 33.101562 49.050781 33.101562 49.023438 L 33.101562 23.300781 L 42.898438 18.875 C 42.425781 21.875 42.324219 24.898438 42.226562 27.449219 C 42.199219 28.074219 42.175781 28.675781 42.175781 29.300781 C 41.976562 35.976562 41.800781 41.726562 38.898438 47.800781 C 38.425781 48.800781 38.851562 50 39.851562 50.476562 C 40.125 50.601562 40.425781 50.675781 40.726562 50.675781 C 41.476562 50.675781 42.199219 50.25 42.550781 49.523438 C 45.824219 42.675781 46.023438 36.226562 46.226562 29.398438 C 46.25 28.800781 46.25 28.199219 46.273438 27.574219 C 46.425781 22.773438 46.648438 16.226562 49.476562 12.101562 C 51.875 8.574219 55.875 6.226562 60.425781 5.675781 C 65.148438 5.101562 69.773438 6.5 73.148438 9.523438 C 79.601562 15.300781 79.800781 24.25 79.976562 32.925781 C 80.023438 35.273438 80.074219 37.675781 80.273438 39.976562 C 80.300781 40.25 80.324219 40.550781 80.351562 40.875 C 80.476562 42.800781 80.648438 45.199219 81.449219 47.226562 C 79.675781 47.875 77.824219 48.5 75.898438 49.125 C 73.773438 47.976562 72.648438 45.925781 72.148438 44.75 C 73.25 43.699219 74.199219 42.476562 75.050781 41.101562 C 76.375 38.925781 77.425781 36.25 78.175781 33.175781 C 78.449219 32.101562 77.773438 31 76.699219 30.75 C 75.625 30.476562 74.523438 31.148438 74.273438 32.226562 C 73.625 34.851562 72.699219 37.199219 71.601562 39 C 70.226562 41.25 68.398438 43 66.148438 44.125 C 64.074219 45.175781 61.449219 45.050781 58.925781 43.75 C 56.875 42.699219 54.875 40.425781 53.199219 37.199219 C 52.773438 36.398438 52.398438 35.523438 52.050781 34.476562 C 56.375 32.351562 68.074219 26.101562 73.101562 18.449219 C 73.699219 17.523438 73.449219 16.273438 72.523438 15.648438 C 71.601562 15.050781 70.351562 15.300781 69.726562 16.226562 C 64.273438 24.523438 48.925781 31.476562 48.75 31.550781 C 47.824219 31.949219 47.351562 32.976562 47.648438 33.949219 C 48.226562 36 48.851562 37.601562 49.601562 39.050781 C 51.148438 42.023438 52.949219 44.324219 54.925781 45.925781 C 54.675781 47.449219 53.425781 53 48.199219 55.675781 C 27.449219 58.851562 14.125 56.425781 13.023438 52.226562 C 12.523438 50.300781 14.601562 46.625 21.550781 42 L 21.550781 37.226562 C 14.476562 41.523438 7.601562 47.375 9.125 53.25 C 10.574219 58.824219 19.074219 61.148438 30.523438 61.148438 C 30.949219 61.148438 31.398438 61.148438 31.851562 61.125 C 33.800781 65.148438 37.125 69.324219 42.726562 72.324219 L 60.949219 82.824219 C 61.425781 83.101562 61.949219 83.226562 62.476562 83.226562 C 63 83.226562 63.550781 83.074219 64 82.824219 L 82.226562 72.324219 C 96.148438 64.898438 95.925781 50.050781 95.898438 48.898438 L 95.898438 45.398438 C 108.824219 39.199219 117.601562 31.875 115.898438 25.375 Z M 58.574219 48.050781 C 60.074219 48.601562 61.574219 48.898438 63.050781 48.898438 C 64.773438 48.898438 66.425781 48.523438 67.925781 47.75 C 68.226562 47.601562 68.523438 47.425781 68.824219 47.25 C 69.351562 48.25 70.101562 49.449219 71.175781 50.550781 C 69.449219 51.050781 67.675781 51.550781 65.851562 52.023438 C 62.351562 52.949219 58.976562 53.726562 55.726562 54.375 C 57.324219 52.074219 58.175781 49.699219 58.574219 48.050781 Z M 91.875 49.074219 C 91.898438 49.625 92.300781 62.449219 80.300781 68.824219 C 80.273438 68.824219 80.25 68.851562 80.25 68.851562 L 62.476562 79.074219 L 44.699219 68.851562 C 44.675781 68.851562 44.648438 68.824219 44.648438 68.824219 C 40.648438 66.699219 38.050781 63.851562 36.324219 61 C 40.300781 60.773438 44.5 60.300781 48.800781 59.648438 C 48.800781 59.648438 48.824219 59.648438 48.824219 59.648438 C 49.023438 59.648438 49.199219 59.601562 49.398438 59.550781 C 55.148438 58.648438 61.074219 57.425781 66.851562 55.898438 C 69.949219 55.101562 73.074219 54.175781 76.125 53.199219 C 76.25 53.175781 76.375 53.125 76.476562 53.074219 C 79.300781 52.175781 82.101562 51.199219 84.800781 50.175781 C 85 50.125 85.175781 50.050781 85.375 49.949219 C 87.625 49.101562 89.800781 48.199219 91.898438 47.273438 L 91.898438 48.949219 C 91.875 49.023438 91.875 49.050781 91.875 49.074219 Z M 91.875 49.074219 "/>
<path style=" stroke:none;fill-rule:nonzero;fill:rgb(12.54902%,7.45098%,22.745098%);fill-opacity:1;" d="M 1.425781 96.898438 L 7.476562 96.898438 L 7.476562 117.398438 L 21.300781 117.398438 L 21.300781 122.925781 L 1.425781 122.925781 Z M 1.425781 96.898438 "/>
<path style=" stroke:none;fill-rule:nonzero;fill:rgb(12.54902%,7.45098%,22.745098%);fill-opacity:1;" d="M 54.324219 113.449219 L 54.324219 96.898438 L 60.273438 96.898438 L 60.273438 111.675781 C 60.273438 115.726562 62.300781 117.976562 65.851562 117.976562 C 69.300781 117.976562 71.699219 115.601562 71.699219 111.574219 L 71.699219 96.898438 L 77.699219 96.898438 L 77.699219 122.898438 L 71.699219 122.898438 L 71.699219 118.851562 C 70.023438 121.324219 67.601562 123.425781 63.574219 123.425781 C 57.726562 123.449219 54.324219 119.5 54.324219 113.449219 Z M 54.324219 113.449219 "/>
<path style=" stroke:none;fill-rule:nonzero;fill:rgb(12.54902%,7.45098%,22.745098%);fill-opacity:1;" d="M 83.925781 96.898438 L 89.875 96.898438 L 89.875 102.75 C 91.5 98.851562 94.5 96.199219 99.074219 96.398438 L 99.074219 102.699219 L 98.75 102.699219 C 93.523438 102.699219 89.875 106.101562 89.875 113 L 89.875 122.898438 L 83.925781 122.898438 Z M 83.925781 96.898438 "/>
<path style=" stroke:none;fill-rule:nonzero;fill:rgb(12.54902%,7.45098%,22.745098%);fill-opacity:1;" d="M 45.898438 99.449219 C 44.074219 97.574219 41.175781 96.550781 37.273438 96.550781 C 33.148438 96.550781 30.324219 97.375 27.476562 98.675781 L 29.050781 103.351562 C 31.425781 102.375 33.574219 101.726562 36.5 101.726562 C 40.675781 101.726562 42.949219 103.699219 42.949219 107.398438 L 42.949219 108.050781 C 40.925781 107.398438 38.851562 106.976562 35.949219 106.976562 C 29.601562 106.976562 25.199219 109.726562 25.199219 115.351562 L 25.199219 115.449219 C 25.199219 120.675781 29.523438 123.476562 34.398438 123.476562 C 36.226562 123.476562 37.773438 123.125 39.101562 122.523438 L 39.101562 118.625 C 38.199219 118.949219 37.175781 119.125 36.074219 119.125 C 33.226562 119.125 31 117.699219 31 115.175781 L 31 115.074219 C 31 112.375 33.273438 110.75 37.101562 110.75 C 39.476562 110.75 41.476562 111.199219 43 111.773438 L 43 113.550781 C 43 113.675781 43 113.773438 42.976562 113.875 L 42.976562 122.898438 L 48.648438 122.898438 L 48.648438 107.476562 C 48.699219 104.074219 47.824219 101.324219 45.898438 99.449219 Z M 45.898438 99.449219 "/>
<path style=" stroke:none;fill-rule:nonzero;fill:rgb(12.54902%,7.45098%,22.745098%);fill-opacity:1;" d="M 120.773438 99.449219 C 118.949219 97.574219 116.050781 96.550781 112.148438 96.550781 C 108.023438 96.550781 105.199219 97.375 102.351562 98.675781 L 103.925781 103.351562 C 106.300781 102.375 108.449219 101.726562 111.375 101.726562 C 115.550781 101.726562 117.824219 103.699219 117.824219 107.398438 L 117.824219 108.050781 C 115.800781 107.398438 113.726562 106.976562 110.824219 106.976562 C 104.476562 106.976562 100.074219 109.726562 100.074219 115.351562 L 100.074219 115.449219 C 100.074219 120.675781 104.398438 123.476562 109.273438 123.476562 C 111.101562 123.476562 112.648438 123.125 113.976562 122.523438 L 113.976562 118.625 C 113.074219 118.949219 112.050781 119.125 110.949219 119.125 C 108.101562 119.125 105.875 117.699219 105.875 115.175781 L 105.875 115.074219 C 105.875 112.375 108.148438 110.75 111.976562 110.75 C 114.351562 110.75 116.351562 111.199219 117.875 111.773438 L 117.875 113.550781 C 117.875 113.675781 117.875 113.773438 117.851562 113.875 L 117.851562 122.898438 L 123.523438 122.898438 L 123.523438 107.476562 C 123.574219 104.074219 122.699219 101.324219 120.773438 99.449219 Z M 120.773438 99.449219 "/>
</g>
</svg>
