<?xml version="1.0" encoding="UTF-8"?>
<svg xmlns="http://www.w3.org/2000/svg" xmlns:xlink="http://www.w3.org/1999/xlink" width="167pt" height="167pt" viewBox="0 0 167 167" version="1.1">
<defs>
<linearGradient id="linear0" gradientUnits="userSpaceOnUse" x1="161.7887" y1="29.7514" x2="291.5599" y2="217.3935" gradientTransform="matrix(0.334535,0,0,0.334535,0,0)">
<stop offset="0" style="stop-color:rgb(54.117647%,69.411765%,96.470588%);stop-opacity:1;"/>
<stop offset="1" style="stop-color:rgb(38.431373%,14.117647%,86.666667%);stop-opacity:1;"/>
</linearGradient>
</defs>
<g id="surface1">
<path style=" stroke:none;fill-rule:nonzero;fill:url(#linear0);" d="M 155.089844 33.957031 C 153.785156 28.9375 148.398438 25.691406 139.097656 24.222656 L 139.097656 29.675781 C 145.289062 30.777344 149.234375 32.785156 149.871094 35.292969 C 151.277344 40.714844 138.398438 51.617188 113.941406 61.25 C 113.140625 59.3125 112.9375 56.300781 112.804688 54.332031 C 112.769531 53.890625 112.738281 53.457031 112.707031 53.054688 C 112.472656 50.179688 112.402344 47.136719 112.335938 43.960938 C 112.207031 38.167969 112.070312 32.046875 110.867188 26.191406 L 122.972656 31.210938 L 122.972656 49.078125 C 124.847656 48.140625 126.652344 47.199219 128.363281 46.265625 L 128.363281 30.34375 C 128.363281 28.671875 127.359375 27.164062 125.816406 26.5625 L 108.890625 19.570312 C 107.285156 15.625 104.945312 11.945312 101.433594 8.796875 C 95.777344 3.710938 88.050781 1.371094 80.152344 2.308594 C 72.527344 3.210938 65.765625 7.191406 61.691406 13.214844 C 60.550781 14.886719 59.683594 16.726562 59.015625 18.632812 L 41.382812 26.59375 C 39.878906 27.234375 38.90625 28.703125 38.90625 30.375 L 38.90625 65.539062 C 38.90625 65.871094 38.875 67.105469 39.042969 68.945312 C 39.445312 68.945312 39.808594 68.980469 40.210938 68.980469 C 41.582031 68.980469 42.988281 68.980469 44.425781 68.914062 C 44.226562 67.074219 44.257812 65.902344 44.292969 65.703125 C 44.292969 65.667969 44.292969 65.636719 44.292969 65.601562 L 44.292969 31.179688 L 57.402344 25.257812 C 56.773438 29.273438 56.636719 33.316406 56.503906 36.730469 C 56.46875 37.566406 56.4375 38.371094 56.4375 39.207031 C 56.171875 48.140625 55.933594 55.835938 52.050781 63.964844 C 51.417969 65.300781 51.988281 66.90625 53.328125 67.542969 C 53.691406 67.710938 54.09375 67.8125 54.496094 67.8125 C 55.5 67.8125 56.46875 67.242188 56.9375 66.269531 C 61.320312 57.105469 61.585938 48.476562 61.859375 39.339844 C 61.890625 38.539062 61.890625 37.734375 61.921875 36.898438 C 62.125 30.472656 62.421875 21.714844 66.207031 16.195312 C 69.417969 11.472656 74.769531 8.332031 80.859375 7.59375 C 87.179688 6.828125 93.367188 8.699219 97.882812 12.742188 C 106.519531 20.472656 106.785156 32.449219 107.019531 44.058594 C 107.082031 47.199219 107.152344 50.414062 107.417969 53.496094 C 107.453125 53.859375 107.484375 54.261719 107.523438 54.695312 C 107.6875 57.273438 107.917969 60.484375 108.992188 63.195312 C 106.617188 64.0625 104.140625 64.898438 101.5625 65.734375 C 98.71875 64.199219 97.214844 61.457031 96.542969 59.882812 C 98.019531 58.476562 99.289062 56.839844 100.429688 55 C 102.199219 52.089844 103.605469 48.507812 104.609375 44.394531 C 104.976562 42.957031 104.070312 41.480469 102.632812 41.148438 C 101.195312 40.78125 99.722656 41.679688 99.386719 43.125 C 98.519531 46.636719 97.28125 49.777344 95.8125 52.1875 C 93.972656 55.199219 91.527344 57.539062 88.515625 59.046875 C 85.742188 60.453125 82.226562 60.285156 78.851562 58.542969 C 76.105469 57.136719 73.429688 54.09375 71.1875 49.777344 C 70.617188 48.707031 70.117188 47.535156 69.652344 46.132812 C 75.4375 43.289062 91.09375 34.925781 97.820312 24.6875 C 98.621094 23.449219 98.285156 21.777344 97.046875 20.941406 C 95.8125 20.140625 94.140625 20.472656 93.304688 21.714844 C 86.007812 32.816406 65.46875 42.121094 65.234375 42.21875 C 63.996094 42.753906 63.363281 44.128906 63.761719 45.429688 C 64.535156 48.171875 65.371094 50.316406 66.375 52.253906 C 68.445312 56.234375 70.855469 59.3125 73.5 61.457031 C 73.164062 63.492188 71.492188 70.921875 64.496094 74.503906 C 36.730469 78.75 18.902344 75.503906 17.425781 69.886719 C 16.757812 67.308594 19.539062 62.390625 28.839844 56.203125 L 28.839844 49.8125 C 19.371094 55.5625 10.171875 63.394531 12.210938 71.257812 C 14.148438 78.714844 25.523438 81.824219 40.84375 81.824219 C 41.414062 81.824219 42.015625 81.824219 42.621094 81.792969 C 45.230469 87.179688 49.679688 92.765625 57.175781 96.78125 L 81.558594 110.832031 C 82.195312 111.203125 82.898438 111.367188 83.601562 111.367188 C 84.304688 111.367188 85.039062 111.164062 85.640625 110.832031 L 110.03125 96.78125 C 128.660156 86.84375 128.363281 66.976562 128.324219 65.433594 L 128.324219 60.75 C 145.621094 52.453125 157.367188 42.652344 155.089844 33.957031 Z M 78.378906 64.296875 C 80.386719 65.035156 82.394531 65.433594 84.371094 65.433594 C 86.675781 65.433594 88.886719 64.929688 90.894531 63.894531 C 91.296875 63.699219 91.695312 63.460938 92.097656 63.226562 C 92.800781 64.566406 93.804688 66.171875 95.242188 67.644531 C 92.933594 68.3125 90.558594 68.980469 88.117188 69.613281 C 83.433594 70.855469 78.917969 71.894531 74.570312 72.761719 C 76.707031 69.683594 77.847656 66.503906 78.378906 64.296875 Z M 122.941406 65.667969 C 122.972656 66.40625 123.511719 83.566406 107.453125 92.097656 C 107.417969 92.097656 107.386719 92.132812 107.386719 92.132812 L 83.601562 105.8125 L 59.8125 92.132812 C 59.78125 92.132812 59.746094 92.097656 59.746094 92.097656 C 54.394531 89.253906 50.917969 85.441406 48.605469 81.625 C 53.929688 81.324219 59.546875 80.691406 65.300781 79.816406 C 65.300781 79.816406 65.332031 79.816406 65.332031 79.816406 C 65.601562 79.816406 65.835938 79.753906 66.101562 79.6875 C 73.796875 78.480469 81.726562 76.84375 89.457031 74.800781 C 93.601562 73.734375 97.785156 72.496094 101.867188 71.1875 C 102.035156 71.15625 102.199219 71.089844 102.335938 71.019531 C 106.117188 69.820312 109.863281 68.511719 113.476562 67.140625 C 113.742188 67.074219 113.976562 66.976562 114.242188 66.839844 C 117.253906 65.703125 120.167969 64.496094 122.972656 63.257812 L 122.972656 65.5 C 122.941406 65.601562 122.941406 65.636719 122.941406 65.667969 Z M 122.941406 65.667969 "/>
<path style=" stroke:none;fill-rule:nonzero;fill:rgb(12.54902%,7.45098%,22.745098%);fill-opacity:1;" d="M 1.90625 129.664062 L 10.003906 129.664062 L 10.003906 157.09375 L 28.503906 157.09375 L 28.503906 164.492188 L 1.90625 164.492188 Z M 1.90625 129.664062 "/>
<path style=" stroke:none;fill-rule:nonzero;fill:rgb(12.54902%,7.45098%,22.745098%);fill-opacity:1;" d="M 72.695312 151.8125 L 72.695312 129.664062 L 80.65625 129.664062 L 80.65625 149.4375 C 80.65625 154.859375 83.367188 157.871094 88.117188 157.871094 C 92.734375 157.871094 95.945312 154.691406 95.945312 149.300781 L 95.945312 129.664062 L 103.972656 129.664062 L 103.972656 164.457031 L 95.945312 164.457031 L 95.945312 159.039062 C 93.703125 162.347656 90.460938 165.160156 85.070312 165.160156 C 77.246094 165.191406 72.695312 159.90625 72.695312 151.8125 Z M 72.695312 151.8125 "/>
<path style=" stroke:none;fill-rule:nonzero;fill:rgb(12.54902%,7.45098%,22.745098%);fill-opacity:1;" d="M 112.304688 129.664062 L 120.265625 129.664062 L 120.265625 137.492188 C 122.441406 132.277344 126.453125 128.726562 132.574219 128.996094 L 132.574219 137.425781 L 132.140625 137.425781 C 125.148438 137.425781 120.265625 141.980469 120.265625 151.210938 L 120.265625 164.457031 L 112.304688 164.457031 Z M 112.304688 129.664062 "/>
<path style=" stroke:none;fill-rule:nonzero;fill:rgb(12.54902%,7.45098%,22.745098%);fill-opacity:1;" d="M 61.417969 133.078125 C 58.976562 130.566406 55.097656 129.199219 49.878906 129.199219 C 44.355469 129.199219 40.578125 130.300781 36.765625 132.042969 L 38.875 138.300781 C 42.050781 136.992188 44.925781 136.125 48.84375 136.125 C 54.429688 136.125 57.472656 138.765625 57.472656 143.714844 L 57.472656 144.585938 C 54.765625 143.714844 51.988281 143.148438 48.105469 143.148438 C 39.609375 143.148438 33.71875 146.828125 33.71875 154.355469 L 33.71875 154.488281 C 33.71875 161.480469 39.507812 165.230469 46.03125 165.230469 C 48.476562 165.230469 50.546875 164.757812 52.324219 163.953125 L 52.324219 158.738281 C 51.117188 159.171875 49.746094 159.40625 48.273438 159.40625 C 44.460938 159.40625 41.480469 157.5 41.480469 154.121094 L 41.480469 153.984375 C 41.480469 150.375 44.523438 148.199219 49.648438 148.199219 C 52.824219 148.199219 55.5 148.800781 57.539062 149.570312 L 57.539062 151.945312 C 57.539062 152.113281 57.539062 152.246094 57.507812 152.378906 L 57.507812 164.457031 L 65.097656 164.457031 L 65.097656 143.820312 C 65.167969 139.265625 63.996094 135.585938 61.417969 133.078125 Z M 61.417969 133.078125 "/>
<path style=" stroke:none;fill-rule:nonzero;fill:rgb(12.54902%,7.45098%,22.745098%);fill-opacity:1;" d="M 161.613281 133.078125 C 159.171875 130.566406 155.292969 129.199219 150.070312 129.199219 C 144.550781 129.199219 140.769531 130.300781 136.960938 132.042969 L 139.066406 138.300781 C 142.246094 136.992188 145.121094 136.125 149.035156 136.125 C 154.625 136.125 157.664062 138.765625 157.664062 143.714844 L 157.664062 144.585938 C 154.957031 143.714844 152.183594 143.148438 148.296875 143.148438 C 139.804688 143.148438 133.914062 146.828125 133.914062 154.355469 L 133.914062 154.488281 C 133.914062 161.480469 139.699219 165.230469 146.222656 165.230469 C 148.667969 165.230469 150.738281 164.757812 152.515625 163.953125 L 152.515625 158.738281 C 151.308594 159.171875 149.941406 159.40625 148.464844 159.40625 C 144.65625 159.40625 141.675781 157.5 141.675781 154.121094 L 141.675781 153.984375 C 141.675781 150.375 144.71875 148.199219 149.839844 148.199219 C 153.019531 148.199219 155.695312 148.800781 157.734375 149.570312 L 157.734375 151.945312 C 157.734375 152.113281 157.734375 152.246094 157.703125 152.378906 L 157.703125 164.457031 L 165.292969 164.457031 L 165.292969 143.820312 C 165.359375 139.265625 164.1875 135.585938 161.613281 133.078125 Z M 161.613281 133.078125 "/>
</g>
</svg>
