<?xml version="1.0" encoding="UTF-8"?>
<svg xmlns="http://www.w3.org/2000/svg" xmlns:xlink="http://www.w3.org/1999/xlink" width="125pt" height="125pt" viewBox="0 0 125 125" version="1.1">
<defs>
<linearGradient id="linear0" gradientUnits="userSpaceOnUse" x1="41.1829" y1="14.8688" x2="83.5225" y2="76.0895" gradientTransform="matrix(0.25,0,0,0.25,0,0)">
<stop offset="0" style="stop-color:rgb(54.117647%,69.411765%,96.470588%);stop-opacity:1;"/>
<stop offset="1" style="stop-color:rgb(38.431373%,14.117647%,86.666667%);stop-opacity:1;"/>
</linearGradient>
</defs>
<g id="surface1">
<path style=" stroke:none;fill-rule:nonzero;fill:url(#linear0);" d="M 34.925781 9.574219 C 34.601562 8.351562 33.300781 7.550781 31.023438 7.199219 L 31.023438 8.523438 C 32.523438 8.800781 33.5 9.273438 33.648438 9.898438 C 34 11.226562 30.851562 13.875 24.898438 16.226562 C 24.699219 15.75 24.648438 15.023438 24.625 14.523438 C 24.625 14.425781 24.601562 14.300781 24.601562 14.226562 C 24.550781 13.523438 24.523438 12.773438 24.5 12 C 24.476562 10.601562 24.425781 9.101562 24.125 7.675781 L 27.074219 8.898438 L 27.074219 13.25 C 27.523438 13.023438 27.976562 12.800781 28.398438 12.574219 L 28.398438 8.699219 C 28.398438 8.300781 28.148438 7.925781 27.773438 7.773438 L 23.648438 6.074219 C 23.25 5.101562 22.699219 4.226562 21.824219 3.449219 C 20.449219 2.226562 18.550781 1.625 16.648438 1.875 C 14.773438 2.101562 13.148438 3.074219 12.148438 4.523438 C 11.875 4.925781 11.648438 5.375 11.5 5.851562 L 7.199219 7.800781 C 6.824219 7.949219 6.601562 8.324219 6.601562 8.726562 L 6.601562 17.25 C 6.601562 17.324219 6.601562 17.625 6.625 18.074219 C 6.726562 18.074219 6.800781 18.074219 6.898438 18.074219 C 7.226562 18.074219 7.574219 18.074219 7.925781 18.050781 C 7.875 17.601562 7.898438 17.324219 7.898438 17.273438 C 7.898438 17.273438 7.898438 17.25 7.898438 17.25 L 7.898438 8.898438 L 11.101562 7.449219 C 10.949219 8.425781 10.898438 9.425781 10.875 10.25 C 10.875 10.449219 10.851562 10.648438 10.851562 10.851562 C 10.773438 13.023438 10.726562 14.898438 9.773438 16.898438 C 9.625 17.226562 9.75 17.625 10.074219 17.773438 C 10.175781 17.824219 10.273438 17.851562 10.351562 17.851562 C 10.601562 17.851562 10.824219 17.699219 10.949219 17.476562 C 12.023438 15.25 12.074219 13.148438 12.148438 10.898438 C 12.148438 10.699219 12.148438 10.5 12.175781 10.300781 C 12.226562 8.726562 12.300781 6.601562 13.226562 5.25 C 14 4.101562 15.324219 3.324219 16.800781 3.148438 C 18.351562 2.976562 19.851562 3.425781 20.949219 4.398438 C 23.050781 6.273438 23.125 9.199219 23.175781 12.023438 C 23.199219 12.800781 23.199219 13.574219 23.273438 14.324219 C 23.273438 14.425781 23.300781 14.523438 23.300781 14.625 C 23.351562 15.25 23.398438 16.023438 23.648438 16.699219 C 23.074219 16.898438 22.476562 17.125 21.851562 17.324219 C 21.148438 16.949219 20.800781 16.273438 20.625 15.898438 C 20.976562 15.550781 21.300781 15.148438 21.574219 14.699219 C 22 14 22.351562 13.125 22.601562 12.125 C 22.675781 11.773438 22.476562 11.425781 22.125 11.324219 C 21.773438 11.25 21.425781 11.449219 21.324219 11.800781 C 21.125 12.648438 20.824219 13.425781 20.449219 14.023438 C 20 14.773438 19.398438 15.324219 18.675781 15.699219 C 18 16.050781 17.148438 16 16.324219 15.574219 C 15.648438 15.226562 15 14.5 14.449219 13.449219 C 14.300781 13.175781 14.199219 12.898438 14.074219 12.574219 C 15.476562 11.875 19.300781 9.851562 20.949219 7.351562 C 21.148438 7.050781 21.074219 6.648438 20.75 6.449219 C 20.449219 6.25 20.050781 6.324219 19.851562 6.648438 C 18.074219 9.351562 13.050781 11.625 13 11.648438 C 12.699219 11.773438 12.550781 12.125 12.648438 12.425781 C 12.851562 13.101562 13.050781 13.625 13.300781 14.074219 C 13.800781 15.050781 14.398438 15.800781 15.023438 16.324219 C 14.949219 16.824219 14.523438 18.625 12.824219 19.5 C 6.050781 20.523438 1.699219 19.75 1.351562 18.375 C 1.175781 17.726562 1.851562 16.523438 4.125 15 L 4.125 13.449219 C 1.824219 14.851562 -0.425781 16.773438 0.0742188 18.675781 C 0.550781 20.5 3.324219 21.25 7.050781 21.25 C 7.199219 21.25 7.324219 21.25 7.476562 21.25 C 8.125 22.550781 9.199219 23.925781 11.023438 24.898438 L 16.976562 28.324219 C 17.125 28.398438 17.300781 28.449219 17.476562 28.449219 C 17.648438 28.449219 17.824219 28.398438 17.976562 28.324219 L 23.925781 24.898438 C 28.476562 22.476562 28.398438 17.625 28.375 17.25 L 28.375 16.101562 C 32.601562 14.074219 35.476562 11.699219 34.925781 9.574219 Z M 16.199219 16.976562 C 16.675781 17.148438 17.175781 17.25 17.648438 17.25 C 18.199219 17.25 18.75 17.125 19.25 16.875 C 19.351562 16.824219 19.449219 16.773438 19.550781 16.726562 C 19.726562 17.050781 19.976562 17.449219 20.324219 17.800781 C 19.75 17.976562 19.175781 18.125 18.574219 18.273438 C 17.425781 18.574219 16.324219 18.824219 15.273438 19.050781 C 15.800781 18.273438 16.074219 17.5 16.199219 16.976562 Z M 27.074219 17.300781 C 27.074219 17.476562 27.226562 21.648438 23.300781 23.75 C 23.300781 23.75 23.273438 23.75 23.273438 23.75 L 17.476562 27.074219 L 11.675781 23.75 C 11.675781 23.75 11.648438 23.75 11.648438 23.75 C 10.351562 23.050781 9.5 22.125 8.925781 21.199219 C 10.226562 21.125 11.601562 20.976562 13 20.75 C 13.074219 20.75 13.125 20.726562 13.199219 20.726562 C 15.074219 20.425781 17 20.023438 18.898438 19.523438 C 19.925781 19.25 20.925781 18.976562 21.925781 18.648438 C 21.976562 18.648438 22 18.625 22.050781 18.625 C 22.976562 18.324219 23.875 18 24.773438 17.675781 C 24.851562 17.648438 24.898438 17.625 24.949219 17.601562 C 25.675781 17.324219 26.398438 17.023438 27.074219 16.726562 L 27.074219 17.273438 C 27.074219 17.273438 27.074219 17.300781 27.074219 17.300781 Z M 27.074219 17.300781 "/>
<path style=" stroke:none;fill-rule:nonzero;fill:rgb(12.54902%,7.45098%,22.745098%);fill-opacity:1;" d="M 40.199219 8.773438 L 44.175781 8.773438 L 44.175781 22.25 L 53.25 22.25 L 53.25 25.875 L 40.175781 25.875 L 40.175781 8.773438 Z M 40.199219 8.773438 "/>
<path style=" stroke:none;fill-rule:nonzero;fill:rgb(12.54902%,7.45098%,22.745098%);fill-opacity:1;" d="M 75.050781 19.550781 L 75.050781 8.648438 L 78.976562 8.648438 L 78.976562 18.375 C 78.976562 21.023438 80.300781 22.523438 82.625 22.523438 C 84.898438 22.523438 86.476562 20.976562 86.476562 18.324219 L 86.476562 8.648438 L 90.425781 8.648438 L 90.425781 25.75 L 86.5 25.75 L 86.5 23.101562 C 85.398438 24.726562 83.800781 26.125 81.148438 26.125 C 77.300781 26.125 75.050781 23.523438 75.050781 19.550781 Z M 75.050781 19.550781 "/>
<path style=" stroke:none;fill-rule:nonzero;fill:rgb(12.54902%,7.45098%,22.745098%);fill-opacity:1;" d="M 94.476562 8.773438 L 98.398438 8.773438 L 98.398438 12.625 C 99.476562 10.074219 101.449219 8.324219 104.449219 8.449219 L 104.449219 12.601562 L 104.226562 12.601562 C 100.800781 12.601562 98.398438 14.824219 98.398438 19.375 L 98.398438 25.875 L 94.476562 25.875 Z M 94.476562 8.773438 "/>
<path style=" stroke:none;fill-rule:nonzero;fill:rgb(12.54902%,7.45098%,22.745098%);fill-opacity:1;" d="M 69.449219 10.449219 C 68.25 9.226562 66.351562 8.550781 63.773438 8.550781 C 61.050781 8.550781 59.199219 9.101562 57.324219 9.949219 L 58.351562 13.023438 C 59.898438 12.375 61.324219 11.949219 63.25 11.949219 C 66 11.949219 67.5 13.25 67.5 15.675781 L 67.5 16.101562 C 66.175781 15.675781 64.800781 15.375 62.898438 15.375 C 58.726562 15.375 55.851562 17.199219 55.851562 20.875 L 55.851562 20.949219 C 55.851562 24.375 58.699219 26.226562 61.898438 26.226562 C 63.101562 26.226562 64.125 26 65 25.601562 L 65 23.050781 C 64.398438 23.273438 63.726562 23.375 63 23.375 C 61.125 23.375 59.675781 22.425781 59.675781 20.773438 L 59.675781 20.699219 C 59.675781 18.925781 61.175781 17.851562 63.699219 17.851562 C 65.25 17.851562 66.574219 18.148438 67.601562 18.523438 L 67.601562 19.699219 C 67.601562 19.773438 67.601562 19.851562 67.601562 19.925781 L 67.601562 25.851562 L 71.351562 25.851562 L 71.351562 15.726562 C 71.300781 13.5 70.726562 11.675781 69.449219 10.449219 Z M 69.449219 10.449219 "/>
<path style=" stroke:none;fill-rule:nonzero;fill:rgb(12.54902%,7.45098%,22.745098%);fill-opacity:1;" d="M 118.699219 10.449219 C 117.5 9.226562 115.601562 8.550781 113.023438 8.550781 C 110.300781 8.550781 108.449219 9.101562 106.574219 9.949219 L 107.601562 13.023438 C 109.148438 12.375 110.574219 11.949219 112.5 11.949219 C 115.25 11.949219 116.75 13.25 116.75 15.675781 L 116.75 16.101562 C 115.425781 15.675781 114.050781 15.375 112.148438 15.375 C 107.976562 15.375 105.101562 17.199219 105.101562 20.875 L 105.101562 20.949219 C 105.101562 24.375 107.949219 26.226562 111.148438 26.226562 C 112.351562 26.226562 113.375 26 114.25 25.601562 L 114.25 23.050781 C 113.648438 23.273438 112.976562 23.375 112.25 23.375 C 110.375 23.375 108.925781 22.425781 108.925781 20.773438 L 108.925781 20.699219 C 108.925781 18.925781 110.425781 17.851562 112.949219 17.851562 C 114.5 17.851562 115.824219 18.148438 116.851562 18.523438 L 116.851562 19.699219 C 116.851562 19.773438 116.851562 19.851562 116.851562 19.925781 L 116.851562 25.851562 L 120.601562 25.851562 L 120.601562 15.726562 C 120.550781 13.5 119.976562 11.675781 118.699219 10.449219 Z M 118.699219 10.449219 "/>
</g>
</svg>
