<?xml version="1.0" encoding="UTF-8"?>
<svg xmlns="http://www.w3.org/2000/svg" xmlns:xlink="http://www.w3.org/1999/xlink" width="165pt" height="47pt" viewBox="0 0 165 47" version="1.1">
<g id="surface1">
<path style=" stroke:none;fill-rule:nonzero;fill:rgb(12.54902%,7.45098%,22.745098%);fill-opacity:1;" d="M 7.386719 11.21875 L 13.085938 11.21875 L 13.085938 30.652344 L 26.179688 30.652344 L 26.179688 35.875 L 7.386719 35.875 Z M 7.386719 11.21875 "/>
<path style=" stroke:none;fill-rule:nonzero;fill:rgb(12.54902%,7.45098%,22.745098%);fill-opacity:1;" d="M 57.414062 26.742188 L 57.414062 10.957031 L 62.988281 10.957031 L 62.988281 25.046875 C 62.988281 28.828125 64.929688 31.046875 68.300781 31.046875 C 71.542969 31.046875 73.871094 28.828125 73.871094 24.914062 L 73.871094 10.957031 L 79.574219 10.957031 L 79.574219 35.742188 L 73.871094 35.742188 L 73.871094 31.960938 C 72.316406 34.308594 69.984375 36.265625 66.222656 36.265625 C 60.652344 36.265625 57.414062 32.484375 57.414062 26.742188 Z M 57.414062 26.742188 "/>
<path style=" stroke:none;fill-rule:nonzero;fill:rgb(12.54902%,7.45098%,22.745098%);fill-opacity:1;" d="M 85.277344 11.21875 L 90.851562 11.21875 L 90.851562 16.828125 C 92.40625 13.175781 95.257812 10.566406 99.535156 10.828125 L 99.535156 16.828125 L 99.144531 16.828125 C 94.21875 16.828125 90.722656 20.085938 90.722656 26.613281 L 90.722656 36.003906 L 85.148438 36.003906 L 85.148438 11.21875 Z M 85.277344 11.21875 "/>
<path style=" stroke:none;fill-rule:nonzero;fill:rgb(12.54902%,7.45098%,22.745098%);fill-opacity:1;" d="M 49.378906 13.566406 C 47.695312 11.742188 44.972656 10.828125 41.214844 10.828125 C 37.324219 10.828125 34.601562 11.609375 32.011719 12.785156 L 33.4375 17.21875 C 35.640625 16.308594 37.714844 15.652344 40.4375 15.652344 C 44.453125 15.652344 46.527344 17.480469 46.527344 21.003906 L 46.527344 21.65625 C 44.582031 21.003906 42.640625 20.609375 39.914062 20.609375 C 33.957031 20.609375 29.808594 23.21875 29.808594 28.566406 L 29.808594 28.699219 C 29.808594 33.65625 33.957031 36.394531 38.488281 36.394531 C 40.175781 36.394531 41.730469 36.003906 42.898438 35.480469 L 42.898438 31.828125 C 41.988281 32.089844 41.082031 32.351562 40.046875 32.351562 C 37.324219 32.351562 35.253906 31.046875 35.253906 28.566406 L 35.253906 28.441406 C 35.253906 25.828125 37.453125 24.265625 41.082031 24.265625 C 43.285156 24.265625 45.234375 24.65625 46.65625 25.308594 L 46.65625 27 C 46.65625 27.132812 46.65625 27.261719 46.65625 27.261719 L 46.65625 35.875 L 51.972656 35.875 L 51.972656 21.261719 C 51.972656 18.003906 51.191406 15.394531 49.378906 13.566406 Z M 49.378906 13.566406 "/>
<path style=" stroke:none;fill-rule:nonzero;fill:rgb(12.54902%,7.45098%,22.745098%);fill-opacity:1;" d="M 120.140625 13.566406 C 118.457031 11.742188 115.734375 10.828125 111.976562 10.828125 C 108.085938 10.828125 105.363281 11.609375 102.773438 12.785156 L 104.199219 17.21875 C 106.402344 16.308594 108.476562 15.652344 111.195312 15.652344 C 115.214844 15.652344 117.289062 17.480469 117.289062 21.003906 L 117.289062 21.65625 C 115.34375 21.003906 113.402344 20.609375 110.675781 20.609375 C 104.71875 20.609375 100.570312 23.21875 100.570312 28.566406 L 100.570312 28.699219 C 100.570312 33.65625 104.71875 36.394531 109.25 36.394531 C 110.9375 36.394531 112.496094 36.003906 113.664062 35.480469 L 113.664062 31.828125 C 112.753906 32.089844 111.84375 32.351562 110.8125 32.351562 C 108.085938 32.351562 106.015625 31.046875 106.015625 28.566406 L 106.015625 28.441406 C 106.015625 25.828125 108.21875 24.265625 111.84375 24.265625 C 114.046875 24.265625 115.992188 24.65625 117.417969 25.308594 L 117.417969 27 C 117.417969 27.132812 117.417969 27.261719 117.417969 27.261719 L 117.417969 35.875 L 122.734375 35.875 L 122.734375 21.261719 C 122.859375 18.003906 121.953125 15.394531 120.140625 13.566406 Z M 120.140625 13.566406 "/>
</g>
</svg>
